<svg width="174" height="39" viewBox="0 0 174 39" fill="none" xmlns="http://www.w3.org/2000/svg">
<path d="M16.0421 26.8064C13.8657 25.998 11.6272 25.8737 9.57516 26.4333C8.14498 26.8064 6.77698 27.5526 5.53335 28.4853L4.66279 29.2315L4.41406 29.4802L4.9737 29.9777C5.03588 29.9777 5.03588 30.0399 5.09807 30.102C5.22243 30.2264 5.3468 30.2886 5.53335 30.4129L5.90642 30.6617L6.27952 30.3508C6.3417 30.2886 6.46606 30.1642 6.59043 30.102C7.7097 29.1693 8.95333 28.5475 10.2591 28.2366C11.9381 27.8013 13.7413 27.8635 15.5446 28.5475C17.037 29.1071 20.0839 29.7911 23.7526 28.2366L23.877 28.1744L24.0635 27.9879C24.0635 27.9257 24.1257 27.9257 24.1879 27.8635C24.4988 27.4904 24.8097 27.1173 25.0584 26.682L26.3021 24.7544L24.3122 25.8737C21.3897 27.4904 18.7159 27.8013 16.0421 26.8064Z" fill="#55B02E"/>
<path d="M7.52364 20.0906C9.20255 19.6553 11.0058 19.7175 12.8091 20.4015C14.7989 21.1477 19.8978 22.2048 25.6186 17.0437L26.5513 16.111L26.6135 16.0488L26.8622 15.8001L26.7378 15.4891C26.6756 15.2404 26.5513 14.9295 26.4269 14.6186L26.116 13.748L25.4942 14.3699C25.432 14.4942 25.3076 14.5564 25.1833 14.6808C22.4473 17.479 18.2189 20.3393 13.3687 18.5982C11.1924 17.7899 8.95382 17.6655 6.90182 18.2251C4.91201 18.7848 3.17091 19.8419 1.55418 21.3342V21.2721L0.621456 22.267C0.621456 22.3291 0.559286 22.3292 0.497104 22.3913L0.310547 22.5779L0.372732 22.8266C0.434914 23.1375 0.559274 23.4484 0.621456 23.7593L0.994551 24.7542L1.61637 23.9459C1.67855 23.8215 1.80291 23.7593 1.86509 23.635C3.17091 22.4535 4.97419 20.7746 7.52364 20.0906Z" fill="#55B02E"/>
<path d="M1.49238 18.9715C2.92256 17.4792 4.53928 16.5464 6.28037 16.049C7.95928 15.6137 9.76255 15.6759 11.5658 16.3599C17.1622 18.4119 22.0124 15.0541 24.1266 13.2508L24.9349 12.4424L25.2458 12.1937L24.9971 11.8206C24.8106 11.6341 24.6862 11.3854 24.4997 11.1366L24.1266 10.6392L23.6913 11.0744C23.6291 11.1366 23.5047 11.261 23.4426 11.3232C20.8309 13.8104 16.7891 16.3599 12.1876 14.6188C10.0113 13.8104 7.77273 13.6861 5.72074 14.2457C4.41492 14.6188 3.17128 15.2406 1.92764 16.049L0.621818 17.1061C0.497455 17.2304 0.435273 17.2926 0.310909 17.417L0.186557 17.5413V17.7279C0.124375 18.1632 0.124367 18.5984 0.0621856 18.9715L0 20.5261L1.0571 19.4068C1.18146 19.2824 1.30583 19.0959 1.49238 18.9715Z" fill="#55B02E"/>
<path d="M17.8466 31.0349L17.7222 31.408L17.8466 31.0349C17.66 30.9727 17.5357 30.9105 17.3491 30.8483C15.1728 30.04 12.9342 29.9156 10.8822 30.4753C10.4469 30.5996 10.0117 30.724 9.57639 30.9105L8.08401 31.5945L7.71094 31.7811L8.95457 32.2163C9.32766 32.3407 9.70075 32.4651 10.0738 32.5894L10.2604 32.6516L10.4469 32.5894C10.6335 32.5273 10.82 32.4029 11.0066 32.4029C11.1309 32.4029 11.2553 32.3407 11.3797 32.2785C12.872 31.9054 14.4887 31.9054 16.2298 32.4651C16.4164 32.5272 16.5408 32.5894 16.7273 32.6516L17.0382 32.776L17.2247 32.7138C17.66 32.5894 18.1575 32.4651 18.5306 32.2785L20.2717 31.6567L18.4684 31.2214C18.2818 31.1592 18.0331 31.0971 17.8466 31.0349Z" fill="#55B02E"/>
<path d="M27.3607 18.1631L26.428 19.0958C26.3036 19.2202 26.1793 19.3445 26.0549 19.4689C23.5055 21.894 19.4015 24.5056 14.8 22.7645C12.6236 21.9562 10.3851 21.8318 8.3331 22.3915C6.40547 22.9511 4.66436 23.946 3.10981 25.4384L2.30146 26.3089L2.05273 26.6198L2.30146 26.9929C2.488 27.2416 2.61237 27.4282 2.73674 27.6769L3.10981 28.2365L3.54509 27.6769C3.60728 27.6147 3.73164 27.4904 3.79382 27.4282C5.28618 25.8114 6.90291 24.8165 8.76836 24.3191C10.4473 23.8838 12.2505 23.946 14.0538 24.63C15.6084 25.1896 17.2251 25.3762 18.8418 25.1896C21.7022 24.8787 24.5626 23.262 26.6767 21.4587C26.8011 21.3344 26.9255 21.2722 27.0498 21.1478L27.2364 20.9613V20.7747C27.2364 20.4016 27.2986 19.9664 27.2986 19.5933L27.3607 18.1631Z" fill="#55B02E"/>
<path d="M3.73045 12.4423L3.54391 12.0692L3.73045 12.4423C4.10354 12.2557 4.53883 12.1313 4.91192 12.007C6.59083 11.5717 8.3941 11.6339 10.1974 12.3179C11.3788 12.7532 12.5603 12.9397 13.8661 12.9397C16.4777 12.9397 19.0894 12.007 21.5145 10.2037L22.4472 9.45752L22.7581 9.20879L22.1985 8.77351C22.0119 8.58697 21.7632 8.40043 21.5145 8.27607L21.1414 8.02734L20.8305 8.27607C20.7061 8.33825 20.6439 8.46261 20.5195 8.52479C17.2239 11.0121 13.9283 11.6961 10.8192 10.5146C8.58065 9.70625 6.34209 9.51971 4.10355 10.2037C3.917 10.2659 3.73045 10.3281 3.48173 10.3902L3.35738 10.4524L3.17082 10.639C3.17082 10.7012 3.10865 10.7012 3.04647 10.7633C2.79774 11.1364 2.48682 11.4473 2.23809 11.8204L1.05664 13.6237L2.98428 12.6288C3.29519 12.6288 3.54391 12.5044 3.73045 12.4423Z" fill="#55B02E"/>
<path d="M8.82967 8.21393L9.01621 8.27611C9.82457 8.58702 11.0682 8.89793 12.6228 8.89793C14.2395 8.89793 15.794 8.52484 17.3486 7.90302L19.2762 6.97029L17.9704 6.53503C17.5973 6.41067 17.2242 6.2863 16.7889 6.22412H16.6024L16.4159 6.28629C16.2293 6.34847 16.0428 6.47285 15.8562 6.53503C13.9908 7.21903 12.1253 7.34339 10.322 6.84594C10.1355 6.78376 9.94894 6.72156 9.7624 6.65938L9.57586 6.5972L9.3893 6.65938C9.01621 6.78375 8.64313 6.90812 8.27004 7.09466L6.83984 7.71648L8.33222 8.15174C8.45659 8.08956 8.64312 8.15175 8.82967 8.21393Z" fill="#55B02E"/>
<path d="M40.4751 30V18.492H37.7591V15.86H41.4551L40.4751 16.756V14.6C40.4751 12.8453 40.9138 11.52 41.7911 10.624C42.6871 9.728 43.9845 9.28 45.6831 9.28C46.0938 9.28 46.5231 9.308 46.9711 9.364C47.4378 9.42 47.8391 9.52267 48.1751 9.672V12.416C47.9325 12.3227 47.6431 12.248 47.3071 12.192C46.9711 12.136 46.6445 12.108 46.3271 12.108C45.5991 12.108 45.0205 12.3227 44.5911 12.752C44.1618 13.1627 43.9471 13.8347 43.9471 14.768V16.476L43.4431 15.86H53.2711V30H49.7711V18.492H43.9751V30H40.4751ZM49.5751 13.2V9.784H53.4671V13.2H49.5751ZM57.0778 30V19.388C57.0778 18.8093 57.0592 18.2213 57.0218 17.624C56.9845 17.0267 56.9285 16.4387 56.8538 15.86H60.2418L60.5218 18.66H60.1858C60.6338 17.6707 61.2965 16.9147 62.1738 16.392C63.0512 15.8507 64.0685 15.58 65.2258 15.58C66.8872 15.58 68.1378 16.0467 68.9778 16.98C69.8178 17.9133 70.2378 19.3693 70.2378 21.348V30H66.7378V21.516C66.7378 20.3773 66.5138 19.5653 66.0658 19.08C65.6365 18.576 64.9832 18.324 64.1058 18.324C63.0232 18.324 62.1645 18.66 61.5298 19.332C60.8952 20.004 60.5778 20.9 60.5778 22.02V30H57.0778ZM79.4089 30.28C78.1769 30.28 77.0943 29.9907 76.1609 29.412C75.2276 28.8147 74.4996 27.9653 73.9769 26.864C73.4543 25.7627 73.1929 24.4467 73.1929 22.916C73.1929 21.3853 73.4543 20.0787 73.9769 18.996C74.4996 17.8947 75.2276 17.0547 76.1609 16.476C77.0943 15.8787 78.1769 15.58 79.4089 15.58C80.6036 15.58 81.6489 15.8787 82.5449 16.476C83.4596 17.0547 84.0663 17.8387 84.3649 18.828H84.0569L84.3649 15.86H87.7249C87.6689 16.4387 87.6129 17.0267 87.5569 17.624C87.5196 18.2213 87.5009 18.8093 87.5009 19.388V30H84.0289L84.0009 27.088H84.3369C84.0383 28.0587 83.4316 28.8333 82.5169 29.412C81.6023 29.9907 80.5663 30.28 79.4089 30.28ZM80.3889 27.592C81.4903 27.592 82.3769 27.2093 83.0489 26.444C83.7209 25.66 84.0569 24.484 84.0569 22.916C84.0569 21.348 83.7209 20.1813 83.0489 19.416C82.3769 18.6507 81.4903 18.268 80.3889 18.268C79.2876 18.268 78.4009 18.6507 77.7289 19.416C77.0569 20.1813 76.7209 21.348 76.7209 22.916C76.7209 24.484 77.0476 25.66 77.7009 26.444C78.3729 27.2093 79.2689 27.592 80.3889 27.592ZM91.3122 30V19.388C91.3122 18.8093 91.2935 18.2213 91.2562 17.624C91.2189 17.0267 91.1629 16.4387 91.0882 15.86H94.4762L94.7562 18.66H94.4202C94.8682 17.6707 95.5309 16.9147 96.4082 16.392C97.2855 15.8507 98.3029 15.58 99.4602 15.58C101.122 15.58 102.372 16.0467 103.212 16.98C104.052 17.9133 104.472 19.3693 104.472 21.348V30H100.972V21.516C100.972 20.3773 100.748 19.5653 100.3 19.08C99.8709 18.576 99.2175 18.324 98.3402 18.324C97.2575 18.324 96.3989 18.66 95.7642 19.332C95.1295 20.004 94.8122 20.9 94.8122 22.02V30H91.3122ZM114.679 30.28C113.223 30.28 111.945 29.9813 110.843 29.384C109.761 28.7867 108.921 27.9373 108.323 26.836C107.726 25.716 107.427 24.3907 107.427 22.86C107.427 21.3293 107.726 20.0227 108.323 18.94C108.939 17.8573 109.789 17.0267 110.871 16.448C111.954 15.8693 113.223 15.58 114.679 15.58C115.613 15.58 116.518 15.7293 117.395 16.028C118.291 16.308 119.019 16.7187 119.579 17.26L118.515 19.696C118.011 19.2293 117.442 18.884 116.807 18.66C116.191 18.4173 115.585 18.296 114.987 18.296C113.737 18.296 112.757 18.688 112.047 19.472C111.357 20.256 111.011 21.3947 111.011 22.888C111.011 24.3813 111.357 25.5293 112.047 26.332C112.757 27.1347 113.737 27.536 114.987 27.536C115.566 27.536 116.163 27.424 116.779 27.2C117.414 26.976 117.993 26.6307 118.515 26.164L119.579 28.572C119.001 29.1133 118.263 29.5333 117.367 29.832C116.49 30.1307 115.594 30.28 114.679 30.28ZM128.851 30.28C126.481 30.28 124.623 29.6267 123.279 28.32C121.935 27.0133 121.263 25.2213 121.263 22.944C121.263 21.4693 121.553 20.1813 122.131 19.08C122.71 17.9787 123.513 17.12 124.539 16.504C125.585 15.888 126.798 15.58 128.179 15.58C129.542 15.58 130.681 15.8693 131.595 16.448C132.51 17.0267 133.201 17.8387 133.667 18.884C134.153 19.9293 134.395 21.152 134.395 22.552V23.476H124.091V21.628H131.903L131.427 22.02C131.427 20.7133 131.147 19.7147 130.587 19.024C130.046 18.3333 129.253 17.988 128.207 17.988C127.05 17.988 126.154 18.3987 125.519 19.22C124.903 20.0413 124.595 21.1893 124.595 22.664V23.028C124.595 24.5587 124.969 25.7067 125.715 26.472C126.481 27.2187 127.554 27.592 128.935 27.592C129.738 27.592 130.485 27.4893 131.175 27.284C131.885 27.06 132.557 26.7053 133.191 26.22L134.227 28.572C133.555 29.1133 132.753 29.5333 131.819 29.832C130.886 30.1307 129.897 30.28 128.851 30.28ZM136.967 30V26.108H140.887V30H136.967ZM149.682 30.28C148.45 30.28 147.368 29.9907 146.434 29.412C145.501 28.8147 144.773 27.9653 144.25 26.864C143.728 25.7627 143.466 24.4467 143.466 22.916C143.466 21.3853 143.728 20.0787 144.25 18.996C144.773 17.8947 145.501 17.0547 146.434 16.476C147.368 15.8787 148.45 15.58 149.682 15.58C150.877 15.58 151.922 15.8787 152.818 16.476C153.733 17.0547 154.34 17.8387 154.638 18.828H154.33L154.638 15.86H157.998C157.942 16.4387 157.886 17.0267 157.83 17.624C157.793 18.2213 157.774 18.8093 157.774 19.388V30H154.302L154.274 27.088H154.61C154.312 28.0587 153.705 28.8333 152.79 29.412C151.876 29.9907 150.84 30.28 149.682 30.28ZM150.662 27.592C151.764 27.592 152.65 27.2093 153.322 26.444C153.994 25.66 154.33 24.484 154.33 22.916C154.33 21.348 153.994 20.1813 153.322 19.416C152.65 18.6507 151.764 18.268 150.662 18.268C149.561 18.268 148.674 18.6507 148.002 19.416C147.33 20.1813 146.994 21.348 146.994 22.916C146.994 24.484 147.321 25.66 147.974 26.444C148.646 27.2093 149.542 27.592 150.662 27.592ZM161.586 30V15.86H165.086V30H161.586ZM161.39 13.2V9.784H165.282V13.2H161.39Z" fill="white"/>
</svg>
